<mxfile host="app.diagrams.net" modified="2024-03-22T12:30:00.464Z" agent="Mozilla/5.0 (X11; Linux x86_64) AppleWebKit/537.36 (KHTML, like Gecko) Chrome/122.0.0.0 Safari/537.36" etag="zYiaN6bLDLqgcGV85egu" version="24.0.7" type="github">
  <diagram id="zFlVRU_5h1scILDpNqvU" name="Page-1">
    <mxGraphModel dx="398" dy="218" grid="0" gridSize="10" guides="1" tooltips="1" connect="1" arrows="1" fold="1" page="1" pageScale="1" pageWidth="1654" pageHeight="1169" background="#FFFFFF" math="0" shadow="0">
      <root>
        <mxCell id="0" />
        <mxCell id="1" parent="0" />
        <mxCell id="fAfMOuDEGAaXCi6AJNAk-10" value="" style="shape=cube;whiteSpace=wrap;html=1;boundedLbl=1;backgroundOutline=1;darkOpacity=0.05;darkOpacity2=0.1;size=58;perimeterSpacing=0;strokeColor=#6c8ebf;fillColor=#dae8fc;direction=south;labelPadding=0;" parent="1" vertex="1">
          <mxGeometry x="68" y="143" width="69" height="305" as="geometry" />
        </mxCell>
        <mxCell id="YaG1ghF0Epi8K0uBQFao-6" value="" style="shape=cube;whiteSpace=wrap;html=1;boundedLbl=1;backgroundOutline=1;darkOpacity=0.05;darkOpacity2=0.1;size=58;perimeterSpacing=0;strokeColor=#6c8ebf;fillColor=#dae8fc;direction=south;labelPadding=0;" parent="1" vertex="1">
          <mxGeometry x="87" y="143" width="70" height="306" as="geometry" />
        </mxCell>
        <mxCell id="YaG1ghF0Epi8K0uBQFao-7" value="" style="shape=cube;whiteSpace=wrap;html=1;boundedLbl=1;backgroundOutline=1;darkOpacity=0.05;darkOpacity2=0.1;size=58;perimeterSpacing=0;strokeColor=#d6b656;fillColor=#fff2cc;direction=south;labelPadding=0;" parent="1" vertex="1">
          <mxGeometry x="105" y="188.25" width="69" height="216" as="geometry" />
        </mxCell>
        <mxCell id="YaG1ghF0Epi8K0uBQFao-8" value="" style="shape=cube;whiteSpace=wrap;html=1;boundedLbl=1;backgroundOutline=1;darkOpacity=0.05;darkOpacity2=0.1;size=58;perimeterSpacing=0;strokeColor=#6c8ebf;fillColor=#dae8fc;direction=south;labelPadding=0;" parent="1" vertex="1">
          <mxGeometry x="121" y="188.25" width="69" height="216" as="geometry" />
        </mxCell>
        <mxCell id="YaG1ghF0Epi8K0uBQFao-9" value="" style="shape=cube;whiteSpace=wrap;html=1;boundedLbl=1;backgroundOutline=1;darkOpacity=0.05;darkOpacity2=0.1;size=58;perimeterSpacing=0;strokeColor=#6c8ebf;fillColor=#dae8fc;direction=south;labelPadding=0;" parent="1" vertex="1">
          <mxGeometry x="139" y="187.75" width="69" height="216.5" as="geometry" />
        </mxCell>
        <mxCell id="YaG1ghF0Epi8K0uBQFao-10" value="" style="shape=cube;whiteSpace=wrap;html=1;boundedLbl=1;backgroundOutline=1;darkOpacity=0.05;darkOpacity2=0.1;size=58;perimeterSpacing=0;strokeColor=#d6b656;fillColor=#fff2cc;direction=south;labelPadding=0;" parent="1" vertex="1">
          <mxGeometry x="157" y="210.25" width="69" height="171.5" as="geometry" />
        </mxCell>
        <mxCell id="YaG1ghF0Epi8K0uBQFao-11" value="" style="shape=cube;whiteSpace=wrap;html=1;boundedLbl=1;backgroundOutline=1;darkOpacity=0.05;darkOpacity2=0.1;size=58;perimeterSpacing=0;strokeColor=#6c8ebf;fillColor=#dae8fc;direction=south;labelPadding=0;" parent="1" vertex="1">
          <mxGeometry x="174" y="210" width="69" height="171.5" as="geometry" />
        </mxCell>
        <mxCell id="YaG1ghF0Epi8K0uBQFao-12" value="" style="shape=cube;whiteSpace=wrap;html=1;boundedLbl=1;backgroundOutline=1;darkOpacity=0.05;darkOpacity2=0.1;size=58;perimeterSpacing=0;strokeColor=#6c8ebf;fillColor=#dae8fc;direction=south;labelPadding=0;" parent="1" vertex="1">
          <mxGeometry x="192" y="210" width="69" height="171.5" as="geometry" />
        </mxCell>
        <mxCell id="YaG1ghF0Epi8K0uBQFao-13" value="" style="shape=cube;whiteSpace=wrap;html=1;boundedLbl=1;backgroundOutline=1;darkOpacity=0.05;darkOpacity2=0.1;size=58;perimeterSpacing=0;strokeColor=#6c8ebf;fillColor=#dae8fc;direction=south;labelPadding=0;" parent="1" vertex="1">
          <mxGeometry x="210" y="210.5" width="69" height="171.5" as="geometry" />
        </mxCell>
        <mxCell id="YaG1ghF0Epi8K0uBQFao-14" value="" style="shape=cube;whiteSpace=wrap;html=1;boundedLbl=1;backgroundOutline=1;darkOpacity=0.05;darkOpacity2=0.1;size=34;perimeterSpacing=0;strokeColor=#d6b656;fillColor=#fff2cc;direction=south;labelPadding=0;" parent="1" vertex="1">
          <mxGeometry x="234" y="239.75" width="45" height="113" as="geometry" />
        </mxCell>
        <mxCell id="YaG1ghF0Epi8K0uBQFao-15" value="" style="shape=cube;whiteSpace=wrap;html=1;boundedLbl=1;backgroundOutline=1;darkOpacity=0.05;darkOpacity2=0.1;size=34;perimeterSpacing=0;strokeColor=#6c8ebf;fillColor=#dae8fc;direction=south;labelPadding=0;" parent="1" vertex="1">
          <mxGeometry x="250" y="239.75" width="45" height="113" as="geometry" />
        </mxCell>
        <mxCell id="YaG1ghF0Epi8K0uBQFao-16" value="" style="shape=cube;whiteSpace=wrap;html=1;boundedLbl=1;backgroundOutline=1;darkOpacity=0.05;darkOpacity2=0.1;size=34;perimeterSpacing=0;strokeColor=#6c8ebf;fillColor=#dae8fc;direction=south;labelPadding=0;" parent="1" vertex="1">
          <mxGeometry x="266" y="239.25" width="45" height="113" as="geometry" />
        </mxCell>
        <mxCell id="YaG1ghF0Epi8K0uBQFao-17" value="" style="shape=cube;whiteSpace=wrap;html=1;boundedLbl=1;backgroundOutline=1;darkOpacity=0.05;darkOpacity2=0.1;size=34;perimeterSpacing=0;strokeColor=#6c8ebf;fillColor=#dae8fc;direction=south;labelPadding=0;" parent="1" vertex="1">
          <mxGeometry x="282" y="239.25" width="45" height="113" as="geometry" />
        </mxCell>
        <mxCell id="YaG1ghF0Epi8K0uBQFao-18" value="" style="shape=cube;whiteSpace=wrap;html=1;boundedLbl=1;backgroundOutline=1;darkOpacity=0.05;darkOpacity2=0.1;size=20;perimeterSpacing=0;strokeColor=#d6b656;fillColor=#fff2cc;direction=south;labelPadding=0;" parent="1" vertex="1">
          <mxGeometry x="298" y="261.25" width="34" height="81" as="geometry" />
        </mxCell>
        <mxCell id="YaG1ghF0Epi8K0uBQFao-19" value="" style="shape=cube;whiteSpace=wrap;html=1;boundedLbl=1;backgroundOutline=1;darkOpacity=0.05;darkOpacity2=0.1;size=20;perimeterSpacing=0;strokeColor=#6c8ebf;fillColor=#dae8fc;direction=south;labelPadding=0;" parent="1" vertex="1">
          <mxGeometry x="316" y="261.25" width="34" height="81" as="geometry" />
        </mxCell>
        <mxCell id="YaG1ghF0Epi8K0uBQFao-20" value="" style="shape=cube;whiteSpace=wrap;html=1;boundedLbl=1;backgroundOutline=1;darkOpacity=0.05;darkOpacity2=0.1;size=20;perimeterSpacing=0;strokeColor=#6c8ebf;fillColor=#dae8fc;direction=south;labelPadding=0;" parent="1" vertex="1">
          <mxGeometry x="334" y="261.25" width="34" height="81" as="geometry" />
        </mxCell>
        <mxCell id="YaG1ghF0Epi8K0uBQFao-21" value="" style="shape=cube;whiteSpace=wrap;html=1;boundedLbl=1;backgroundOutline=1;darkOpacity=0.05;darkOpacity2=0.1;size=20;perimeterSpacing=0;strokeColor=#6c8ebf;fillColor=#dae8fc;direction=south;labelPadding=0;" parent="1" vertex="1">
          <mxGeometry x="352" y="261.25" width="34" height="81" as="geometry" />
        </mxCell>
        <mxCell id="YaG1ghF0Epi8K0uBQFao-22" value="" style="shape=cube;whiteSpace=wrap;html=1;boundedLbl=1;backgroundOutline=1;darkOpacity=0.05;darkOpacity2=0.1;size=8;perimeterSpacing=0;strokeColor=#d6b656;fillColor=#fff2cc;direction=south;labelPadding=0;" parent="1" vertex="1">
          <mxGeometry x="371" y="277.25" width="26" height="49" as="geometry" />
        </mxCell>
        <mxCell id="YaG1ghF0Epi8K0uBQFao-24" value="" style="shape=cube;whiteSpace=wrap;html=1;boundedLbl=1;backgroundOutline=1;darkOpacity=0.05;darkOpacity2=0.1;size=20;perimeterSpacing=0;strokeColor=#82b366;fillColor=#d5e8d4;direction=south;labelPadding=0;" parent="1" vertex="1">
          <mxGeometry x="392" y="261.25" width="34" height="81" as="geometry" />
        </mxCell>
        <mxCell id="YaG1ghF0Epi8K0uBQFao-25" value="" style="shape=cube;whiteSpace=wrap;html=1;boundedLbl=1;backgroundOutline=1;darkOpacity=0.05;darkOpacity2=0.1;size=20;perimeterSpacing=0;strokeColor=#b85450;fillColor=#f8cecc;direction=south;labelPadding=0;" parent="1" vertex="1">
          <mxGeometry x="406" y="261.25" width="34" height="81" as="geometry" />
        </mxCell>
        <mxCell id="YaG1ghF0Epi8K0uBQFao-27" value="" style="shape=cube;whiteSpace=wrap;html=1;boundedLbl=1;backgroundOutline=1;darkOpacity=0.05;darkOpacity2=0.1;size=20;perimeterSpacing=0;strokeColor=#6c8ebf;fillColor=#dae8fc;direction=south;labelPadding=0;" parent="1" vertex="1">
          <mxGeometry x="426" y="261.25" width="34" height="81" as="geometry" />
        </mxCell>
        <mxCell id="YaG1ghF0Epi8K0uBQFao-28" value="" style="shape=cube;whiteSpace=wrap;html=1;boundedLbl=1;backgroundOutline=1;darkOpacity=0.05;darkOpacity2=0.1;size=20;perimeterSpacing=0;strokeColor=#6c8ebf;fillColor=#dae8fc;direction=south;labelPadding=0;" parent="1" vertex="1">
          <mxGeometry x="445" y="261.25" width="34" height="81" as="geometry" />
        </mxCell>
        <mxCell id="gk7VWWvbLwUDzhhFXbr7-2" value="" style="shape=cube;whiteSpace=wrap;html=1;boundedLbl=1;backgroundOutline=1;darkOpacity=0.05;darkOpacity2=0.1;size=34;perimeterSpacing=0;strokeColor=#82b366;fillColor=#d5e8d4;direction=south;labelPadding=0;" vertex="1" parent="1">
          <mxGeometry x="464" y="239" width="45" height="113" as="geometry" />
        </mxCell>
        <mxCell id="gk7VWWvbLwUDzhhFXbr7-3" value="" style="shape=cube;whiteSpace=wrap;html=1;boundedLbl=1;backgroundOutline=1;darkOpacity=0.05;darkOpacity2=0.1;size=34;perimeterSpacing=0;strokeColor=#b85450;fillColor=#f8cecc;direction=south;labelPadding=0;" vertex="1" parent="1">
          <mxGeometry x="475" y="239" width="45" height="113" as="geometry" />
        </mxCell>
        <mxCell id="gk7VWWvbLwUDzhhFXbr7-4" value="" style="shape=cube;whiteSpace=wrap;html=1;boundedLbl=1;backgroundOutline=1;darkOpacity=0.05;darkOpacity2=0.1;size=34;perimeterSpacing=0;strokeColor=#6c8ebf;fillColor=#dae8fc;direction=south;labelPadding=0;" vertex="1" parent="1">
          <mxGeometry x="491" y="239" width="45" height="113" as="geometry" />
        </mxCell>
        <mxCell id="gk7VWWvbLwUDzhhFXbr7-5" value="" style="shape=cube;whiteSpace=wrap;html=1;boundedLbl=1;backgroundOutline=1;darkOpacity=0.05;darkOpacity2=0.1;size=34;perimeterSpacing=0;strokeColor=#6c8ebf;fillColor=#dae8fc;direction=south;labelPadding=0;" vertex="1" parent="1">
          <mxGeometry x="507" y="239" width="45" height="113" as="geometry" />
        </mxCell>
        <mxCell id="gk7VWWvbLwUDzhhFXbr7-6" value="" style="shape=cube;whiteSpace=wrap;html=1;boundedLbl=1;backgroundOutline=1;darkOpacity=0.05;darkOpacity2=0.1;size=58;perimeterSpacing=0;strokeColor=#82b366;fillColor=#d5e8d4;direction=south;labelPadding=0;" vertex="1" parent="1">
          <mxGeometry x="522" y="209.75" width="69" height="171.5" as="geometry" />
        </mxCell>
        <mxCell id="gk7VWWvbLwUDzhhFXbr7-7" value="" style="shape=cube;whiteSpace=wrap;html=1;boundedLbl=1;backgroundOutline=1;darkOpacity=0.05;darkOpacity2=0.1;size=58;perimeterSpacing=0;strokeColor=#b85450;fillColor=#f8cecc;direction=south;labelPadding=0;" vertex="1" parent="1">
          <mxGeometry x="533" y="209.75" width="69" height="171.5" as="geometry" />
        </mxCell>
        <mxCell id="gk7VWWvbLwUDzhhFXbr7-8" value="" style="shape=cube;whiteSpace=wrap;html=1;boundedLbl=1;backgroundOutline=1;darkOpacity=0.05;darkOpacity2=0.1;size=58;perimeterSpacing=0;strokeColor=#6c8ebf;fillColor=#dae8fc;direction=south;labelPadding=0;" vertex="1" parent="1">
          <mxGeometry x="549" y="209.75" width="69" height="171.5" as="geometry" />
        </mxCell>
        <mxCell id="gk7VWWvbLwUDzhhFXbr7-9" value="" style="shape=cube;whiteSpace=wrap;html=1;boundedLbl=1;backgroundOutline=1;darkOpacity=0.05;darkOpacity2=0.1;size=58;perimeterSpacing=0;strokeColor=#6c8ebf;fillColor=#dae8fc;direction=south;labelPadding=0;" vertex="1" parent="1">
          <mxGeometry x="566" y="209.75" width="69" height="171.5" as="geometry" />
        </mxCell>
        <mxCell id="gk7VWWvbLwUDzhhFXbr7-10" value="" style="shape=cube;whiteSpace=wrap;html=1;boundedLbl=1;backgroundOutline=1;darkOpacity=0.05;darkOpacity2=0.1;size=58;perimeterSpacing=0;strokeColor=#82b366;fillColor=#d5e8d4;direction=south;labelPadding=0;" vertex="1" parent="1">
          <mxGeometry x="585" y="188.25" width="69" height="216" as="geometry" />
        </mxCell>
        <mxCell id="gk7VWWvbLwUDzhhFXbr7-11" value="" style="shape=cube;whiteSpace=wrap;html=1;boundedLbl=1;backgroundOutline=1;darkOpacity=0.05;darkOpacity2=0.1;size=58;perimeterSpacing=0;strokeColor=#b85450;fillColor=#f8cecc;direction=south;labelPadding=0;" vertex="1" parent="1">
          <mxGeometry x="596" y="188.25" width="69" height="216" as="geometry" />
        </mxCell>
        <mxCell id="gk7VWWvbLwUDzhhFXbr7-12" value="" style="shape=cube;whiteSpace=wrap;html=1;boundedLbl=1;backgroundOutline=1;darkOpacity=0.05;darkOpacity2=0.1;size=58;perimeterSpacing=0;strokeColor=#6c8ebf;fillColor=#dae8fc;direction=south;labelPadding=0;" vertex="1" parent="1">
          <mxGeometry x="614" y="188.25" width="69" height="216" as="geometry" />
        </mxCell>
        <mxCell id="gk7VWWvbLwUDzhhFXbr7-13" value="" style="shape=cube;whiteSpace=wrap;html=1;boundedLbl=1;backgroundOutline=1;darkOpacity=0.05;darkOpacity2=0.1;size=58;perimeterSpacing=0;strokeColor=#82b366;fillColor=#d5e8d4;direction=south;labelPadding=0;" vertex="1" parent="1">
          <mxGeometry x="633" y="166.75" width="69" height="259" as="geometry" />
        </mxCell>
        <mxCell id="gk7VWWvbLwUDzhhFXbr7-15" value="" style="endArrow=classic;html=1;rounded=0;entryX=0;entryY=0;entryDx=0;entryDy=5.5;entryPerimeter=0;exitX=0;exitY=0;exitDx=0;exitDy=5.5;exitPerimeter=0;" edge="1" parent="1" source="YaG1ghF0Epi8K0uBQFao-7">
          <mxGeometry width="50" height="50" relative="1" as="geometry">
            <mxPoint x="177" y="187.75" as="sourcePoint" />
            <mxPoint x="659" y="187.75" as="targetPoint" />
            <Array as="points">
              <mxPoint x="169" y="151" />
              <mxPoint x="659.5" y="151.5" />
            </Array>
          </mxGeometry>
        </mxCell>
        <mxCell id="gk7VWWvbLwUDzhhFXbr7-16" value="" style="endArrow=classic;html=1;rounded=0;exitX=0;exitY=0;exitDx=0;exitDy=5.5;exitPerimeter=0;entryX=0;entryY=0;entryDx=0;entryDy=5.5;entryPerimeter=0;endSize=6;" edge="1" parent="1" target="gk7VWWvbLwUDzhhFXbr7-7">
          <mxGeometry width="50" height="50" relative="1" as="geometry">
            <mxPoint x="220" y="210.5" as="sourcePoint" />
            <mxPoint x="505" y="174" as="targetPoint" />
            <Array as="points">
              <mxPoint x="220.5" y="172.25" />
              <mxPoint x="597" y="173" />
            </Array>
          </mxGeometry>
        </mxCell>
        <mxCell id="gk7VWWvbLwUDzhhFXbr7-17" value="" style="endArrow=classic;html=1;rounded=0;exitX=0;exitY=0;exitDx=0;exitDy=5.5;exitPerimeter=0;entryX=0;entryY=0;entryDx=0;entryDy=5.5;entryPerimeter=0;" edge="1" parent="1" source="YaG1ghF0Epi8K0uBQFao-14" target="gk7VWWvbLwUDzhhFXbr7-3">
          <mxGeometry width="50" height="50" relative="1" as="geometry">
            <mxPoint x="291" y="225" as="sourcePoint" />
            <mxPoint x="341" y="175" as="targetPoint" />
            <Array as="points">
              <mxPoint x="274" y="200" />
              <mxPoint x="515" y="201" />
            </Array>
          </mxGeometry>
        </mxCell>
        <mxCell id="gk7VWWvbLwUDzhhFXbr7-18" value="" style="shape=cube;whiteSpace=wrap;html=1;boundedLbl=1;backgroundOutline=1;darkOpacity=0.05;darkOpacity2=0.1;size=58;perimeterSpacing=0;strokeColor=#6c8ebf;fillColor=#dae8fc;direction=south;labelPadding=0;" vertex="1" parent="1">
          <mxGeometry x="650" y="166" width="69" height="259" as="geometry" />
        </mxCell>
        <mxCell id="gk7VWWvbLwUDzhhFXbr7-19" value="" style="endArrow=classic;html=1;rounded=0;exitX=0;exitY=0;exitDx=0;exitDy=7;exitPerimeter=0;entryX=0;entryY=0;entryDx=0;entryDy=7;entryPerimeter=0;" edge="1" parent="1" source="YaG1ghF0Epi8K0uBQFao-18" target="YaG1ghF0Epi8K0uBQFao-25">
          <mxGeometry width="50" height="50" relative="1" as="geometry">
            <mxPoint x="329" y="263" as="sourcePoint" />
            <mxPoint x="379" y="213" as="targetPoint" />
            <Array as="points">
              <mxPoint x="325" y="225" />
              <mxPoint x="433" y="225" />
            </Array>
          </mxGeometry>
        </mxCell>
      </root>
    </mxGraphModel>
  </diagram>
</mxfile>
